<svg xmlns="http://www.w3.org/2000/svg" xmlns:xlink="http://www.w3.org/1999/xlink" width="735px" height="183px" version="1.1"><defs><linearGradient x1="0%" y1="0%" x2="0%" y2="100%" id="mx-gradient-ffe599-1-f1c232-1-s-0"><stop offset="0%" style="stop-color:#FFE599"/><stop offset="100%" style="stop-color:#F1C232"/></linearGradient></defs><g transform="translate(0.5,0.5)"><ellipse cx="42" cy="12" rx="10" ry="10" fill="#274e13" stroke="#274e13" stroke-width="2" pointer-events="none"/><path d="M 42 22 L 42 55.33 M 42 28.67 L 22 28.67 M 42 28.67 L 62 28.67 M 42 55.33 L 22 82 M 42 55.33 L 62 82" fill="none" stroke="#274e13" stroke-width="2" stroke-miterlimit="10" pointer-events="none"/><g fill="#000000" font-family="Helvetica" font-weight="bold" font-style="italic" text-anchor="middle" font-size="18px"><text x="41.75" y="107">PalFinder</text></g><ellipse cx="712" cy="13" rx="10" ry="10" fill="#274e13" stroke="#274e13" stroke-width="2" pointer-events="none"/><path d="M 712 22.5 L 712 55.83 M 712 29.17 L 692 29.17 M 712 29.17 L 732 29.17 M 712 55.83 L 692 82.5 M 712 55.83 L 732 82.5" fill="none" stroke="#274e13" stroke-width="2" stroke-miterlimit="10" pointer-events="none"/><g fill="#000000" font-family="Helvetica" font-weight="bold" font-style="italic" text-anchor="middle" font-size="18px"><text x="711.75" y="107.5">TA</text></g><ellipse cx="252" cy="43" rx="90" ry="37.5" fill="#d0d0d0" stroke="#d0d0d0" stroke-width="2" transform="translate(2,3)" opacity="1"/><ellipse cx="252" cy="43" rx="90" ry="37.5" fill="url(#mx-gradient-ffe599-1-f1c232-1-s-0)" stroke="black" stroke-width="2" pointer-events="none"/><g fill="#000000" font-family="Helvetica" text-anchor="middle" font-size="12px"><text x="251.75" y="46.25">Produce Palindrome List</text></g><ellipse cx="502" cy="40" rx="90" ry="37.5" fill="#d0d0d0" stroke="#d0d0d0" stroke-width="2" transform="translate(2,3)" opacity="1"/><ellipse cx="502" cy="40" rx="90" ry="37.5" fill="url(#mx-gradient-ffe599-1-f1c232-1-s-0)" stroke="black" stroke-width="2" pointer-events="none"/><g fill="#000000" font-family="Helvetica" text-anchor="middle" font-size="12px"><text x="501.75" y="43.75">Validate Palindrome List</text></g><path d="M 62 42 L 151.76 42.9" fill="none" stroke="#990000" stroke-width="2" stroke-miterlimit="10" pointer-events="none"/><path d="M 159.76 42.98 L 151.72 46.9 L 151.8 38.9 Z" fill="#990000" stroke="#990000" stroke-width="2" stroke-miterlimit="10" pointer-events="none"/><path d="M 692 42 L 602.23 40.2" fill="none" stroke="#990000" stroke-width="2" stroke-miterlimit="10" pointer-events="none"/><path d="M 594.24 40.04 L 602.31 36.21 L 602.15 44.2 Z" fill="#990000" stroke="#990000" stroke-width="2" stroke-miterlimit="10" pointer-events="none"/><ellipse cx="502" cy="140" rx="90" ry="37.5" fill="#d0d0d0" stroke="#d0d0d0" stroke-width="2" transform="translate(2,3)" opacity="1"/><ellipse cx="502" cy="140" rx="90" ry="37.5" fill="url(#mx-gradient-ffe599-1-f1c232-1-s-0)" stroke="black" stroke-width="2" pointer-events="none"/><g fill="#000000" font-family="Helvetica" text-anchor="middle" font-size="12px"><text x="501.75" y="143.75">Provide File Lines</text></g><path d="M 692 42 L 599.31 132.84" fill="none" stroke="#990000" stroke-width="2" stroke-miterlimit="10" pointer-events="none"/><path d="M 593.6 138.43 L 596.51 129.98 L 602.11 135.69 Z" fill="#990000" stroke="#990000" stroke-width="2" stroke-miterlimit="10" pointer-events="none"/></g></svg>